# xmcd
#
# Track frame offsets: 
#        150
#        11832
#        23730
#        38220
#        50952
#        66052
#        76595
#        86940
#        103380
#        126235
#        142372
#        152605
#        164762
#        179195
#
# Disc length: 2562 seconds
#
# Revision: 4
# Processed by: cddbd v1.5.2PL0 Copyright (c) Steve Scherf et al.
# Submitted via: ExactAudioCopyFreeDBPlugin 1.0
#
DISCID=d10a000e
DTITLE=Various Artist - Steel Rails:  Classic Railroad Songs, Volume 
DTITLE=1 [Rounder]
DYEAR=2010
DGENRE=Trains
TTITLE0=Roy Acuff - Wabash Cannonball
TTITLE1=Johnson Mountain Boys - Orange Blossom Special
TTITLE2=Utah Phillips - Daddy, What's a Train?
TTITLE3=Jimmie Rodgers - Jimmie the Kid
TTITLE4=Kieran Kane - Ramblin' Man
TTITLE5=Alison Krauss - Steel Rails
TTITLE6=Del McCoury - Trainwreck of Emotion
TTITLE7=Hugh Moffatt - Slow Moving Freight Train
TTITLE8=Tom Russell - Lord of the Trains
TTITLE9=Peter Rowan - Last Train
TTITLE10=David Grisman with Doc Watson and Alan O'Bryant - Nine Pound 
TTITLE10=Hammer
TTITLE11=The Sons of the Pioneers - When the Golden Train Comes Down
TTITLE12=Guy Clark - Texas, 1947
TTITLE13=Kate MacKenzie - Pan American Boogie
EXTD=
EXTT0=
EXTT1=
EXTT2=
EXTT3=
EXTT4=
EXTT5=
EXTT6=
EXTT7=
EXTT8=
EXTT9=
EXTT10=
EXTT11=
EXTT12=
EXTT13=
PLAYORDER=
